<svg xmlns="http://www.w3.org/2000/svg" viewBox="0 0 24 24" fill="#F7931A">
  <path d="M12 0C5.373 0 0 5.373 0 12s5.373 12 12 12 12-5.373 12-12S18.627 0 12 0zm.371 18.481c-3.578 0-6.481-2.903-6.481-6.481S8.793 5.519 12.371 5.519c2.012 0 3.812.917 5.001 2.358l-1.532 1.532c-.822-.822-1.958-1.332-3.211-1.332-2.511 0-4.545 2.034-4.545 4.545s2.034 4.545 4.545 4.545c1.253 0 2.389-.51 3.211-1.332l1.532 1.532c-1.189 1.441-2.989 2.358-5.001 2.358z"/>
  <path d="M14.618 10.579h-1.276V8.494h-1.449v2.085h-1.276v1.449h1.276v2.085h1.449v-2.085h1.276z"/>
</svg>
